<?xml version="1.0" encoding="UTF-8" standalone="no"?>
<svg width="9px" height="17px" viewBox="0 0 9 17" version="1.1" xmlns="http://www.w3.org/2000/svg" xmlns:xlink="http://www.w3.org/1999/xlink">
    <!-- Generator: Sketch 39.1 (31720) - http://www.bohemiancoding.com/sketch -->
    <title>Shape</title>
    <desc>Created with Sketch.</desc>
    <defs></defs>
    <g id="Page-1" stroke="none" stroke-width="1" fill="none" fill-rule="evenodd">
        <g id="Artboard-Copy-2" transform="translate(-1156.000000, -506.000000)" fill="#000000">
            <path d="M1164.45144,506.566355 L1162.43192,506.56299 C1160.16307,506.56299 1158.69684,508.125065 1158.69684,510.542789 L1158.69684,512.377743 L1156.66631,512.377743 C1156.49085,512.377743 1156.34876,512.525454 1156.34876,512.707654 L1156.34876,515.366293 C1156.34876,515.548493 1156.49101,515.696036 1156.66631,515.696036 L1158.69684,515.696036 L1158.69684,522.404628 C1158.69684,522.586828 1158.83892,522.734371 1159.01439,522.734371 L1161.66365,522.734371 C1161.83911,522.734371 1161.9812,522.58666 1161.9812,522.404628 L1161.9812,515.696036 L1164.35536,515.696036 C1164.53082,515.696036 1164.67291,515.548493 1164.67291,515.366293 L1164.67388,512.707654 C1164.67388,512.620171 1164.64035,512.53639 1164.58089,512.474479 C1164.52143,512.412568 1164.44042,512.377743 1164.35617,512.377743 L1161.9812,512.377743 L1161.9812,510.82223 C1161.9812,510.074587 1162.15277,509.695046 1163.09067,509.695046 L1164.45111,509.694541 C1164.62641,509.694541 1164.7685,509.54683 1164.7685,509.364798 L1164.7685,506.896098 C1164.7685,506.714235 1164.62657,506.566692 1164.45144,506.566355 L1164.45144,506.566355 Z" id="Shape"></path>
        </g>
    </g>
</svg>