<?xml version="1.0" encoding="UTF-8" standalone="no"?>
<svg width="17px" height="17px" viewBox="0 0 17 17" version="1.1" xmlns="http://www.w3.org/2000/svg" xmlns:xlink="http://www.w3.org/1999/xlink">
    <!-- Generator: Sketch 39.1 (31720) - http://www.bohemiancoding.com/sketch -->
    <title>Group</title>
    <desc>Created with Sketch.</desc>
    <defs></defs>
    <g id="Page-1" stroke="none" stroke-width="1" fill="none" fill-rule="evenodd">
        <g id="Artboard-Copy-2" transform="translate(-1153.000000, -475.000000)">
            <g id="Group" transform="translate(1153.000000, 475.000000)">
                <path d="M8.31256405,0.133652641 C10.8286623,0.133652641 11.1266321,0.14362053 12.1203331,0.190753181 C13.0390667,0.234362698 13.5380237,0.394106722 13.8700697,0.528286547 C14.3099615,0.706118854 14.6238748,0.918538019 14.9535665,1.26152795 C15.283382,1.60456084 15.4875909,1.93105219 15.6584672,2.38858692 C15.7874608,2.73398288 15.9410305,3.25304355 15.9829545,4.208672 C16.0282654,5.24232497 16.0378893,5.55227478 16.0378893,8.16953325 C16.0378893,10.7868777 16.0282654,11.0968275 15.9829545,12.1303945 C15.9410305,13.0861089 15.7874608,13.6051696 15.6584672,13.9505655 C15.4875909,14.4080573 15.283382,14.7345916 14.9535665,15.0776245 C14.6238748,15.4206144 14.3099615,15.6330336 13.8700697,15.8108229 C13.5380237,15.9450457 13.0390667,16.1047897 12.1203331,16.1483133 C11.1267974,16.1955319 10.8288688,16.2054568 8.31256405,16.2054568 C5.79625931,16.2054568 5.49833074,16.1955319 4.50479495,16.1483133 C3.58610271,16.1047897 3.08710437,15.9450457 2.75505838,15.8108229 C2.31520794,15.6330336 2.00129457,15.4206144 1.67156163,15.0776245 C1.34186999,14.7345916 1.13766108,14.4080573 0.966702213,13.9505655 C0.837667299,13.6051696 0.684138882,13.0861089 0.642173622,12.1303945 C0.59690401,11.0968275 0.587280088,10.7868777 0.587280088,8.16953325 C0.587280088,5.55227478 0.59690401,5.24232497 0.642173622,4.208672 C0.684138882,3.25304355 0.837667299,2.73398288 0.966702213,2.38858692 C1.13766108,1.93105219 1.34186999,1.60456084 1.67156163,1.26152795 C2.00129457,0.918538019 2.31520794,0.706118854 2.75505838,0.528286547 C3.08710437,0.394106722 3.58610271,0.234362698 4.50479495,0.190753181 C5.49849596,0.14362053 5.79646583,0.133652641 8.31256405,0.133652641" id="Fill-1" fill="#000000"></path>
                <path d="M8.31256405,11.4368958 C6.57782098,11.4368958 5.17148911,9.974065 5.17148911,8.16953325 C5.17148911,6.36504447 6.57782098,4.9022137 8.31256405,4.9022137 C10.0473484,4.9022137 11.453639,6.36504447 11.453639,8.16953325 C11.453639,9.974065 10.0473484,11.4368958 8.31256405,11.4368958 M8.31256405,3.13609271 C5.64012872,3.13609271 3.47367216,5.38969507 3.47367216,8.16953325 C3.47367216,10.9495003 5.64012872,13.2030168 8.31256405,13.2030168 C10.9849994,13.2030168 13.1514559,10.9495003 13.1514559,8.16953325 C13.1514559,5.38969507 10.9849994,3.13609271 8.31256405,3.13609271" id="Fill-4" fill="#FFFFFF"></path>
                <path d="M14.4734855,2.93720753 C14.4734855,3.58679599 13.9672176,4.11346147 13.3426953,4.11346147 C12.7182142,4.11346147 12.211905,3.58679599 12.211905,2.93720753 C12.211905,2.2875761 12.7182142,1.76095359 13.3426953,1.76095359 C13.9672176,1.76095359 14.4734855,2.2875761 14.4734855,2.93720753" id="Fill-5" fill="#FFFFFF"></path>
            </g>
        </g>
    </g>
</svg>