<?xml version="1.0" encoding="UTF-8" standalone="no"?>
<svg width="119px" height="64px" viewBox="0 0 119 64" version="1.1" xmlns="http://www.w3.org/2000/svg" xmlns:xlink="http://www.w3.org/1999/xlink">
    <!-- Generator: Sketch 3.8.3 (29802) - http://www.bohemiancoding.com/sketch -->
    <title>Group</title>
    <desc>Created with Sketch.</desc>
    <defs></defs>
    <g id="Page-1" stroke="none" stroke-width="1" fill="none" fill-rule="evenodd">
        <g id="01-HP" transform="translate(-1258.000000, -66.000000)" fill="#000000">
            <g id="Group" transform="translate(1258.000000, 66.000000)">
                <path d="M43.8059381,26.0421278 C43.8059381,11.5926433 35.6541094,1.34736495 24.4549602,1.34736495 C12.8751425,1.34736495 5.40904309,10.8279423 5.40904309,25.8125196 C5.40904309,40.0337155 13.4083414,49.9721897 24.8362862,49.9721897 C36.5686343,49.9721897 43.8059381,40.6453443 43.8059381,26.0421278 M0.000131491712,25.7366433 C0.000131491712,12.1277361 12.1131481,0.659859794 24.378695,0.659859794 C38.6258221,0.659859794 49.2148497,11.0575505 49.2148497,25.9662515 C49.2148497,39.5751588 37.1018331,50.6610144 24.7593635,50.6610144 C10.5135514,50.6610144 0.000131491712,40.4916124 0.000131491712,25.7366433" id="Fill-1"></path>
                <path d="M57.8409691,49.3436041 L58.8061182,49.2901608 C60.467516,49.1826144 61.0579138,49.1826144 61.0579138,48.5366763 L61.0579138,32.6099134 C61.0579138,29.2739959 60.682505,28.5205113 58.8593724,28.3595216 L57.6259801,28.1972124 L57.6805492,27.9827794 L64.1137812,26.3148206 L63.8994497,35.7313979 L63.9533613,35.7313979 C65.4010851,30.0268206 67.7600464,26.2066144 71.137411,26.2066144 C73.0144552,26.2066144 73.9796044,27.4443876 73.9796044,28.681501 C73.9796044,29.8123876 73.1748751,31.0501608 71.7817204,31.0501608 C70.6015823,31.0501608 69.5292674,30.0268206 69.4214442,27.9286763 C66.8488088,28.467068 65.6693282,30.8344082 64.0605271,36.8609649 L64.0605271,48.6448825 C64.0605271,49.0744082 64.0066155,49.2367175 66.3662343,49.2901608 L68.1354552,49.3436041 L68.2958751,49.6669031 L57.6805492,49.6669031 L57.8409691,49.3436041 Z" id="Fill-4"></path>
                <path d="M80.5390028,49.3436041 L81.4508978,49.2901608 C83.1122956,49.1826144 83.7026934,49.1826144 83.7026934,48.5366763 L83.7026934,19.5347794 C83.7026934,16.1988619 83.4344503,15.5535835 81.5041519,15.2837278 L80.3253287,15.1768412 L80.3785829,14.9617485 L86.7053066,13.4554392 L86.7053066,48.6448825 C86.7053066,49.0744082 86.9189807,49.1826144 89.3857652,49.2901608 L90.1372403,49.3436041 L90.2976602,49.6669031 L80.431837,49.6669031 L80.5390028,49.3436041 Z" id="Fill-6"></path>
                <path d="M95.7483862,61.289501 C95.7483862,60.1586144 96.6063696,59.0831505 97.8923586,59.0831505 C99.0724967,59.0831505 100.144154,60.1051711 100.25132,61.7196866 C102.82527,61.2353979 103.790419,58.921501 105.666806,53.2182433 L106.739121,49.9357691 L106.739121,49.8282227 L98.8035961,30.726532 C97.6780271,27.7673567 97.464353,27.4440577 95.8016403,27.3365113 L94.783237,27.283068 L94.6215022,26.9597691 L104.648403,26.9597691 L104.595149,27.283068 L103.683254,27.3365113 C101.64579,27.4440577 101.431458,28.144099 102.181618,30.1888 L108.401834,45.523068 L113.011933,33.363068 C114.781812,28.3050887 114.514226,27.6598103 110.921215,27.3365113 L110.170397,27.283068 L110.009977,26.9597691 L118.910651,26.9597691 L118.748917,27.283068 L118.159176,27.3365113 C115.693049,27.4988206 115.424806,28.3591918 113.280834,34.0090062 L107.168441,50.0433155 L105.720718,54.6170062 C103.844331,60.697666 101.967287,63.4410887 98.6431762,63.4410887 C96.9272094,63.4410887 95.7483862,62.4725113 95.7483862,61.289501" id="Fill-8"></path>
                <path d="M41.3969442,61.5131052 C41.8058834,61.5131052 42.1543365,61.1779299 42.1543365,60.7477443 C42.1543365,60.3432907 41.8058834,60.0331876 41.3969442,60.0331876 L40.6047066,60.0331876 L40.6047066,61.5131052 L41.3969442,61.5131052 Z M40.226668,59.7481567 C40.226668,59.6980124 40.2661155,59.6538062 40.321342,59.6538062 L41.4219276,59.6538062 C42.034679,59.6538062 42.5376348,60.1532701 42.5376348,60.758301 C42.5376348,61.3778474 42.034679,61.8825897 41.4265298,61.8825897 L40.6047066,61.8825897 L40.6047066,63.0576825 C40.6047066,63.107167 40.5606569,63.1526928 40.5106901,63.1526928 L40.321342,63.1526928 C40.2661155,63.1526928 40.226668,63.107167 40.226668,63.0576825 L40.226668,59.7481567 Z" id="Fill-11"></path>
                <path d="M43.5432177,59.7484866 C43.5432177,59.6976825 43.5833227,59.6534763 43.6378917,59.6534763 L43.831842,59.6534763 C43.8818088,59.6534763 43.926516,59.6976825 43.926516,59.7484866 L43.926516,62.8178474 L45.3610906,62.8178474 C45.4163171,62.8178474 45.4557646,62.8627134 45.4557646,62.9128577 L45.4557646,63.0573526 C45.4557646,63.1074969 45.4163171,63.1523629 45.3610906,63.1523629 L43.6378917,63.1523629 C43.5833227,63.1523629 43.5432177,63.1074969 43.5432177,63.0573526 L43.5432177,59.7484866 Z" id="Fill-13"></path>
                <path d="M48.3798116,61.9630186 C48.135237,61.4180289 47.8965796,60.8677608 47.6526624,60.3227711 L47.6125575,60.3227711 L46.8854083,61.9630186 L48.3798116,61.9630186 Z M46.0136182,63.0226474 L47.5284028,59.6583588 C47.5428669,59.628668 47.5678503,59.6029361 47.6125575,59.6029361 L47.6625243,59.6029361 C47.7072315,59.6029361 47.7322149,59.628668 47.7473365,59.6583588 L49.2516017,63.0226474 C49.2811873,63.087967 49.2417398,63.1526268 49.1667895,63.1526268 L48.9675796,63.1526268 C48.9228724,63.1526268 48.8926293,63.1222763 48.8827674,63.0972041 L48.5145906,62.2731216 L46.7460271,62.2731216 L46.3824525,63.0972041 C46.3725906,63.1222763 46.3423475,63.1526268 46.2976403,63.1526268 L46.0984304,63.1526268 C46.0234801,63.1526268 45.9840326,63.087967 46.0136182,63.0226474 L46.0136182,63.0226474 Z" id="Fill-15"></path>
                <path d="M51.6666442,59.6028701 C52.1696,59.6028701 52.5331746,59.7777155 52.8717657,60.0686845 C52.9118707,60.1082722 52.9164729,60.1683134 52.8770254,60.2085608 L52.7422464,60.3431588 C52.7027989,60.3926433 52.6626939,60.3880247 52.6127271,60.3378804 C52.3536884,60.1135505 51.9999757,59.9631175 51.6613845,59.9631175 C50.8744066,59.9631175 50.2715171,60.6281897 50.2715171,61.4027876 C50.2715171,62.1721072 50.8744066,62.8371794 51.6613845,62.8371794 C52.0946497,62.8371794 52.3490862,62.6629938 52.6127271,62.4624165 C52.6626939,62.4221691 52.7027989,62.4274474 52.7323845,62.447901 L52.8816276,62.582499 C52.9217326,62.6121897 52.9118707,62.6821278 52.8770254,62.7170969 C52.5377768,63.0476536 52.1097713,63.2020454 51.6666442,63.2020454 C50.6705945,63.2020454 49.868495,62.4076536 49.868495,61.408066 C49.868495,60.4078186 50.6705945,59.6028701 51.6666442,59.6028701" id="Fill-17"></path>
                <path d="M53.9920094,59.7484866 C53.9920094,59.6976825 54.0321144,59.6534763 54.0866834,59.6534763 L56.0491972,59.6534763 C56.1044238,59.6534763 56.1438713,59.6976825 56.1438713,59.7484866 L56.1438713,59.8929814 C56.1438713,59.9431258 56.1044238,59.9879918 56.0491972,59.9879918 L54.3753077,59.9879918 L54.3753077,61.2079505 L55.8052801,61.2079505 C55.855247,61.2079505 55.8999541,61.2534763 55.8999541,61.3029608 L55.8999541,61.4474557 C55.8999541,61.5028784 55.855247,61.542466 55.8052801,61.542466 L54.3753077,61.542466 L54.3753077,62.8178474 L56.0491972,62.8178474 C56.1044238,62.8178474 56.1438713,62.8627134 56.1438713,62.9128577 L56.1438713,63.0573526 C56.1438713,63.1074969 56.1044238,63.1523629 56.0491972,63.1523629 L54.0866834,63.1523629 C54.0321144,63.1523629 53.9920094,63.1074969 53.9920094,63.0573526 L53.9920094,59.7484866 Z" id="Fill-19"></path>
                <path d="M58.4194669,59.7733608 C58.3997431,59.7034227 58.4398481,59.6532784 58.5088812,59.6532784 L58.7186105,59.6532784 C58.7587155,59.6532784 58.798163,59.6882474 58.8080249,59.7232165 L59.5003287,62.3122474 L59.5207099,62.3122474 L60.352395,59.6578969 C60.3622569,59.628866 60.3918425,59.603134 60.4372072,59.603134 L60.5266215,59.603134 C60.5667265,59.603134 60.6015718,59.628866 60.6107762,59.6578969 L61.4582403,62.3122474 L61.4779641,62.3122474 L62.1551464,59.7232165 C62.1656657,59.6882474 62.2051133,59.6532784 62.2452182,59.6532784 L62.4542901,59.6532784 C62.5239807,59.6532784 62.5640856,59.7034227 62.5437044,59.7733608 L61.6022238,63.1323711 C61.5923619,63.1726186 61.5529144,63.2023093 61.5128094,63.2023093 L61.4332569,63.2023093 C61.3984116,63.2023093 61.3635663,63.1772371 61.3484448,63.1475464 L60.4865166,60.4430515 L60.4615331,60.4430515 L59.615384,63.1475464 C59.6002624,63.1772371 59.5654171,63.2023093 59.5299144,63.2023093 L59.4510193,63.2023093 C59.4109144,63.2023093 59.3708094,63.1726186 59.3609475,63.1323711 L58.4194669,59.7733608 Z" id="Fill-21"></path>
                <path d="M63.569011,59.7484866 C63.569011,59.6976825 63.6287959,59.6534763 63.6956143,59.6534763 L63.9620088,59.6534763 C64.0288272,59.6534763 64.0886121,59.6976825 64.0886121,59.7484866 L64.0886121,63.0573526 C64.0886121,63.1074969 64.0288272,63.1523629 63.9620088,63.1523629 L63.6956143,63.1523629 C63.6287959,63.1523629 63.569011,63.1074969 63.569011,63.0573526 L63.569011,59.7484866 Z" id="Fill-23"></path>
                <path d="M65.3219928,59.7484866 C65.3219928,59.6976825 65.3620978,59.6534763 65.4166669,59.6534763 L65.6106171,59.6534763 C65.660584,59.6534763 65.7052912,59.6976825 65.7052912,59.7484866 L65.7052912,62.8178474 L67.1405232,62.8178474 C67.1950923,62.8178474 67.2351972,62.8627134 67.2351972,62.9128577 L67.2351972,63.0573526 C67.2351972,63.1074969 67.1950923,63.1523629 67.1405232,63.1523629 L65.4166669,63.1523629 C65.3620978,63.1523629 65.3219928,63.1074969 65.3219928,63.0573526 L65.3219928,59.7484866 Z" id="Fill-25"></path>
                <path d="M67.8921298,62.6278268 C67.9171133,62.5974763 67.9420967,62.5625072 67.9664227,62.5328165 C68.017047,62.4674969 68.071616,62.4279093 68.1413066,62.4879505 C68.1761519,62.5169814 68.5397265,62.867332 68.9828536,62.867332 C69.3865331,62.867332 69.6508315,62.6119918 69.6508315,62.3177237 C69.6508315,61.9726515 69.3516878,61.7674557 68.778384,61.5279505 C68.2313785,61.2884454 67.9019917,61.0634557 67.9019917,60.4933938 C67.9019917,60.1529402 68.1715497,59.6026722 68.9631298,59.6026722 C69.4509641,59.6026722 69.8151961,59.8580124 69.8151961,59.8580124 C69.8441243,59.8731876 69.903953,59.9332289 69.8441243,60.0282392 C69.825058,60.0585897 69.8046768,60.0935588 69.784953,60.1225897 C69.7402459,60.1931876 69.690279,60.2129814 69.6107265,60.1681155 C69.5758812,60.1476619 69.261616,59.9385072 68.9578702,59.9385072 C68.4305884,59.9385072 68.270826,60.2776412 68.270826,60.4881155 C68.270826,60.8226309 68.5252624,61.0179299 68.9434061,61.1934351 C69.6153287,61.4679093 70.0492514,61.7225897 70.0492514,62.3025485 C70.0492514,62.822466 69.5561575,63.2025072 68.9736492,63.2025072 C68.3852238,63.2025072 67.9868039,62.8574351 67.9223729,62.7973938 C67.882268,62.7624247 67.8323011,62.7228371 67.8921298,62.6278268" id="Fill-27"></path>
                <path d="M72.653116,62.8527505 C73.4453536,62.8527505 74.0975525,62.2028536 74.0975525,61.4078021 C74.0975525,60.6134103 73.4453536,59.9529567 72.653116,59.9529567 C71.8608785,59.9529567 71.2132818,60.6134103 71.2132818,61.4078021 C71.2132818,62.2028536 71.8608785,62.8527505 72.653116,62.8527505 M72.653116,59.6026062 C73.6491657,59.6026062 74.446663,60.4075546 74.446663,61.4078021 C74.446663,62.4073897 73.6491657,63.2024412 72.653116,63.2024412 C71.6570663,63.2024412 70.8654862,62.4073897 70.8654862,61.4078021 C70.8654862,60.4075546 71.6570663,59.6026062 72.653116,59.6026062" id="Fill-29"></path>
                <path d="M75.5563873,59.6931959 C75.5563873,59.6430515 75.6010945,59.6028041 75.6510613,59.6028041 L75.7759785,59.6028041 L78.0225144,62.412866 L78.0323762,62.412866 L78.0323762,59.7486186 C78.0323762,59.6978144 78.0718238,59.6536082 78.1270503,59.6536082 L78.3006193,59.6536082 C78.3512436,59.6536082 78.3959508,59.6978144 78.3959508,59.7486186 L78.3959508,63.1129072 C78.3959508,63.1623918 78.3512436,63.2019794 78.3006193,63.2019794 L78.211205,63.2019794 L75.9245641,60.3378144 L75.9199619,60.3378144 L75.9199619,63.0574845 C75.9199619,63.1069691 75.8798569,63.1524948 75.8252878,63.1524948 L75.6510613,63.1524948 C75.6010945,63.1524948 75.5563873,63.1069691 75.5563873,63.0574845 L75.5563873,59.6931959 Z" id="Fill-31"></path>
            </g>
        </g>
    </g>
</svg>